<svg width="15" height="13" viewBox="0 0 15 13" fill="none" xmlns="http://www.w3.org/2000/svg">
<path d="M0.901827 5.4472C0.963202 5.43723 1.02532 5.43264 1.08746 5.43344H11.6697L11.4389 5.32612C11.2134 5.21937 11.0082 5.07408 10.8325 4.89682L7.86502 1.92931C7.47419 1.55622 7.40852 0.956046 7.7094 0.507264C8.05958 0.0290338 8.73113 -0.0748023 9.20939 0.275376C9.24803 0.303683 9.28475 0.334539 9.31926 0.367742L14.6855 5.73395C15.1048 6.15285 15.1052 6.83238 14.6863 7.25175C14.686 7.25202 14.6857 7.25232 14.6855 7.25259L9.31926 12.6188C8.89956 13.0373 8.22003 13.0364 7.80146 12.6167C7.76853 12.5836 7.73777 12.5485 7.7094 12.5115C7.40852 12.0627 7.47419 11.4625 7.86502 11.0894L10.8272 8.11655C10.9846 7.95892 11.1657 7.82674 11.3638 7.72482L11.6858 7.57993H1.14653C0.598267 7.60029 0.117252 7.21731 0.0142546 6.6784C-0.0806265 6.09332 0.316742 5.54211 0.901827 5.4472Z" fill="#EC258F"/>
</svg>
