<svg width="163" height="210" viewBox="0 0 163 210" fill="none" xmlns="http://www.w3.org/2000/svg">
<path d="M23.6196 107.279C23.6358 106.647 23.6754 106.219 23.7382 105.996C23.7888 105.752 23.9304 105.545 24.1631 105.375C24.4927 105.135 24.8201 105.103 25.1454 105.279C25.4707 105.456 25.9964 105.974 26.7228 106.833C27.2451 107.487 28.4181 108.612 30.2417 110.208C31.8127 111.516 33.3367 113.05 34.8136 114.81C36.5067 116.797 38.0442 118.425 39.4259 119.693C43.1099 123.183 45.2801 125.488 45.9364 126.605C46.0944 126.874 46.1747 127.082 46.1773 127.228C46.1509 127.513 46.002 127.754 45.7306 127.953C45.5367 128.094 45.3645 128.131 45.2141 128.063C44.8063 127.888 43.7548 126.852 42.0593 124.955C41.4496 124.247 40.228 123.039 38.3946 121.332C36.6242 119.638 35.0248 117.952 33.5965 116.274C32.2191 114.589 30.6987 113.038 29.0354 111.62C27.4838 110.299 26.4857 109.401 26.0413 108.927L25.4219 108.226L25.4158 109.206C25.4114 109.623 25.5169 110.581 25.7322 112.079C26.0282 114.139 26.2436 115.756 26.3784 116.929C26.9736 121.668 27.2958 124.315 27.345 124.871C27.768 129.647 28.1713 133.21 28.555 135.561C28.8117 137.177 28.6977 138.162 28.2129 138.516C27.9803 138.686 27.7414 138.727 27.4963 138.64C27.2634 138.573 27.074 138.416 26.9281 138.167C26.7337 137.836 26.6823 137.489 26.774 137.127C26.8753 136.639 26.8638 136.101 26.7393 135.511C26.5952 134.7 26.3736 132.955 26.0744 130.276C25.7825 127.563 25.6165 125.747 25.5766 124.83C25.5219 123.747 25.365 122.324 25.1057 120.562C24.108 113.959 23.6127 109.531 23.6196 107.279ZM39.2039 104.822C39.3758 104.549 40.0434 103.988 41.2067 103.139C43.766 101.272 45.3451 100.283 45.9441 100.171C46.2303 100.139 46.4524 100.258 46.6104 100.527C46.817 100.879 46.815 101.206 46.6043 101.507C46.4347 101.69 45.9816 102.05 45.2448 102.588C45.0703 102.715 44.7892 102.92 44.4014 103.203C44.0015 103.465 43.6949 103.674 43.4816 103.83L40.6823 105.784L41.0074 106.832C41.1706 107.393 41.4614 108.171 41.8799 109.167L42.4745 110.462L44.1904 109.21C45.3343 108.376 46.1246 107.977 46.5613 108.013C46.8208 108.03 46.9907 108.084 47.0708 108.173C47.1704 108.248 47.2203 108.404 47.2206 108.64C47.2452 108.918 47.163 109.155 46.974 109.352C46.7851 109.549 46.2447 109.973 45.3528 110.624C44.0925 111.543 43.4844 112.135 43.5284 112.398C43.5967 112.703 44.1717 113.777 45.2533 115.619L46.9123 118.443L47.6428 117.777C49.5472 115.974 50.7709 114.874 51.3137 114.478C51.7209 114.181 52.0191 114.052 52.2084 114.092C52.4048 114.096 52.576 114.223 52.7218 114.471C52.8798 114.74 52.8596 115.036 52.6611 115.358C52.4625 115.68 51.9574 116.211 51.1457 116.951C49.3721 118.6 48.243 119.601 47.7583 119.955C47.2735 120.308 46.8419 120.446 46.4634 120.367C46.0728 120.268 45.6344 119.804 45.1482 118.977C45.0996 118.894 44.5113 117.845 43.3834 115.83C39.9775 109.653 38.5843 105.984 39.2039 104.822ZM52.8067 93.4791C53.9165 92.492 54.7719 91.7792 55.3729 91.3407C55.8964 90.9588 56.2855 90.7489 56.5401 90.7109C56.7948 90.6729 57.0011 90.7884 57.1591 91.0575C57.3657 91.4093 57.2789 91.8274 56.8986 92.3117C56.5256 92.7613 55.5261 93.6531 53.9001 94.9872C51.7749 96.7446 50.7318 97.7273 50.7709 97.9353L50.8073 97.9974C50.8316 98.0388 50.8523 98.0976 50.8694 98.1739C50.9059 98.2359 50.9423 98.298 50.9788 98.3601C51.4771 99.2086 52.4929 100.773 54.0263 103.054C55.5791 105.321 56.6992 106.898 57.3868 107.786C57.9698 108.543 58.4558 109.253 58.8448 109.915C59.0635 110.288 59.1997 110.543 59.2532 110.681C59.4575 111.124 59.5634 111.445 59.5709 111.647C59.5857 111.813 59.5119 111.971 59.3495 112.119C59.3108 112.147 59.2684 112.193 59.2224 112.256C59.1836 112.284 59.1545 112.305 59.1351 112.32C58.8637 112.518 58.5944 112.507 58.3273 112.288C58.0602 112.069 57.6363 111.536 57.0555 110.688C56.3289 109.593 55.4627 108.377 54.4568 107.041C53.6599 105.967 52.4399 104.079 50.7969 101.375L48.5437 97.6091L48.772 96.8661C48.8953 96.5101 49.112 96.2189 49.4223 95.9926C49.6743 95.8087 49.8937 95.6635 50.0803 95.5569C50.2282 95.4785 50.5057 95.2908 50.9129 94.9938C51.5914 94.4987 52.2227 93.9938 52.8067 93.4791ZM60.6173 88.2684C60.6897 87.92 60.8228 87.675 61.0167 87.5336C61.2299 87.378 61.4749 87.3471 61.7515 87.4409C61.9651 87.5215 62.2724 87.9034 62.6735 88.5863C62.7707 88.7519 63.0916 89.3455 63.6362 90.3671C63.872 90.8159 64.1128 91.3202 64.3585 91.88C64.6114 92.405 64.8096 92.8368 64.9531 93.1755C65.116 93.5001 65.2218 93.7038 65.2704 93.7866C65.2947 93.8279 65.3166 93.8416 65.336 93.8274C65.4523 93.7426 65.6768 92.8988 66.0097 91.2961C66.3714 89.5541 66.7877 87.787 67.2585 85.995C67.7487 84.1888 68.052 83.2432 68.1684 83.1584C68.6725 82.7906 69.0764 82.8654 69.3803 83.3828C69.5139 83.6104 69.5351 84.0237 69.4436 84.6225C69.3594 85.1865 69.1097 86.2704 68.6944 87.8741C68.016 90.5861 67.6264 92.3042 67.5254 93.0282L67.3813 94.1976L69.9032 94.5305C72.8751 94.8751 75.1603 95.0407 76.7588 95.0274C77.9886 95.0465 78.6995 95.1487 78.8913 95.3339C78.935 95.3612 78.9933 95.4369 79.0662 95.561C79.1756 95.7473 79.205 95.9624 79.1544 96.2063C79.1231 96.436 79.0202 96.6145 78.8457 96.7418C78.5355 96.9682 77.5375 97.0607 75.8515 97.0196C74.185 96.9642 72.3534 96.7929 70.3567 96.5054C69.3523 96.3514 68.4159 96.266 67.5475 96.2492L66.4341 96.2633L67.9876 99.1208C68.836 100.66 69.3771 101.817 69.6109 102.592C69.8326 103.347 69.7883 103.838 69.4781 104.064C69.3812 104.135 69.2054 104.189 68.9507 104.227C68.7154 104.251 68.379 103.89 67.9415 103.145C67.5283 102.442 67.1612 101.793 66.8403 101.199C66.0211 99.7573 65.1725 98.1001 64.2946 96.2279C63.4239 94.3208 62.6798 92.7943 62.0623 91.6485C61.0703 89.7707 60.5887 88.644 60.6173 88.2684ZM83.6265 74.5411C82.506 74.7082 81.5871 75.0534 80.8697 75.5768C79.8033 76.3548 79.0592 77.7993 78.6373 79.9105C78.4952 80.7532 78.5087 81.9553 78.678 83.5169C78.8519 84.8977 79.0725 85.8157 79.3399 86.271C79.6195 86.747 80.2799 87.3294 81.3214 88.0181C82.2633 88.6316 83.1187 88.9092 83.8876 88.8508C84.6808 88.8338 85.3368 88.7247 85.8556 88.5235C86.3939 88.3082 87.0508 87.9176 87.8263 87.3518C88.4079 86.9275 88.7969 86.5994 88.9931 86.3675C89.1965 86.1009 89.4373 85.6148 89.7154 84.9094C90.095 83.9524 90.3064 83.2513 90.3496 82.806C90.4121 82.3465 90.3797 81.6311 90.2524 80.6597C90.1031 79.5566 89.7124 78.467 89.0804 77.3908C88.3026 76.0663 87.535 75.2073 86.7778 74.8138C86.0205 74.4204 84.97 74.3294 83.6265 74.5411ZM78.0978 76.0914C78.5697 75.2445 79.242 74.5028 80.1145 73.8663C80.6961 73.4419 81.1663 73.158 81.5252 73.0144C81.884 72.8709 82.4393 72.7318 83.1911 72.5972C85.1652 72.2802 86.7823 72.5343 88.0422 73.3592C88.4792 73.6317 88.8264 73.94 89.0839 74.2842C89.3609 74.6143 89.8457 75.3691 90.5385 76.5488L92.0334 79.0943L92.1557 81.0004C92.2127 81.9935 92.1483 82.8978 91.9625 83.7133C91.7767 84.5288 91.3995 85.5135 90.8309 86.6674C90.5962 87.1638 90.3517 87.5491 90.0973 87.8234C89.8429 88.0977 89.3862 88.4753 88.727 88.9562C87.7769 89.6493 86.9528 90.1324 86.2545 90.4053C85.5441 90.6576 84.6844 90.797 83.6753 90.8237C83.0155 90.8321 82.5158 90.7828 82.176 90.676C81.8363 90.5691 81.261 90.2497 80.4502 89.7179C79.6952 89.2341 79.166 88.8516 78.8624 88.5705C78.5661 88.2546 78.226 87.7932 77.842 87.1865C77.4774 86.5657 77.2402 86.044 77.1305 85.6214C77.0209 85.1989 76.9108 84.4219 76.8003 83.2905C76.5665 80.5344 76.999 78.1347 78.0978 76.0914Z" fill="#EC258F"/>
<path d="M43.5002 174.712C43.4923 174.967 43.408 175.21 43.2609 175.401C43.1692 175.526 43.149 175.533 43.2769 175.453L42.8492 175.621C42.4466 175.889 42.1835 176.22 41.6531 176.119C40.3502 175.864 39.7061 173.878 39.3197 172.68C38.4232 169.907 38.1467 166.942 38.5147 164.047C38.7675 161.277 39.8034 158.685 41.4714 156.651C43.1394 154.617 45.3524 153.246 47.788 152.739C49.0875 152.463 50.4286 152.493 51.7276 152.825C53.0267 153.158 54.2558 153.786 55.3383 154.671C55.494 154.809 55.6808 154.894 55.8766 154.918C56.0725 154.941 56.269 154.9 56.443 154.801C56.617 154.702 56.7611 154.549 56.8581 154.359C56.9552 154.169 57.0011 153.951 56.9905 153.731C57.0936 148.38 59.0748 143.331 62.5034 139.681C64.1803 137.94 66.1557 136.598 68.3141 135.734C70.4725 134.87 72.7707 134.5 75.0746 134.647C77.6911 134.794 80.2563 135.595 82.5823 136.993C82.7564 137.082 82.9474 137.12 83.1367 137.103C83.326 137.086 83.5072 137.014 83.6628 136.895C83.8184 136.775 83.9431 136.612 84.0247 136.42C84.1063 136.229 84.1422 136.017 84.1288 135.803C83.8175 132.112 84.6324 128.434 86.4394 125.376C88.2465 122.318 90.9382 120.061 94.0721 118.975C95.9145 118.375 97.8578 118.473 99.7245 118.01C100.758 117.735 101.724 117.221 102.563 116.5C103.402 115.779 104.095 114.867 104.598 113.822C105.643 111.68 106.929 109.7 108.424 107.93C109.913 106.269 111.78 105.095 113.829 104.531C115.676 104.005 117.646 104.296 119.335 105.344C121.024 106.392 122.304 108.118 122.914 110.168C122.992 110.398 123.127 110.599 123.304 110.745C123.481 110.892 123.691 110.978 123.909 110.993C124.126 111.008 124.342 110.951 124.529 110.83C124.716 110.708 124.866 110.527 124.961 110.309C125.745 108.283 127.215 106.7 129.052 105.904C130.888 105.108 132.944 105.163 134.774 106.057C135.655 106.547 136.431 107.252 137.043 108.119C137.655 108.986 138.087 109.994 138.308 111.066C138.529 112.138 138.533 113.248 138.319 114.313C138.106 115.378 137.68 116.371 137.074 117.218C136.492 118.287 135.683 119.175 134.719 119.806C133.754 120.437 132.663 120.791 131.539 120.837C129.934 120.856 130.148 123.673 131.75 123.629C134.387 123.347 136.8 121.911 138.47 119.631C140.14 117.351 140.933 114.409 140.679 111.438C140.557 109.985 140.125 108.58 139.419 107.343C138.714 106.105 137.756 105.072 136.628 104.329C134.349 102.933 131.699 102.552 129.215 103.264C127.802 103.591 126.49 104.307 125.397 105.35C124.304 106.392 123.463 107.728 122.95 109.237L124.995 109.375C124.406 107.298 123.261 105.465 121.719 104.128C120.177 102.791 118.313 102.015 116.383 101.907C114.092 101.878 111.842 102.486 109.831 103.676C107.821 104.867 106.114 106.603 104.862 108.729C104.203 109.76 103.595 110.831 103.04 111.937C102.515 113.163 101.72 114.214 100.729 114.994C98.6622 115.822 96.4883 116.289 94.2831 116.377C90.4674 117.431 87.1338 119.978 84.8749 123.564C82.6159 127.15 81.578 131.544 81.9456 135.963L83.4921 134.774C78.8142 132.045 73.4065 131.454 68.4201 133.127C65.9313 133.989 63.6326 135.41 61.6618 137.304C59.6911 139.199 58.0888 141.528 56.951 144.152C55.6362 147.169 54.9586 150.496 54.9701 153.88L56.6272 152.941C54.0779 150.952 50.9906 150.053 47.9361 150.41C44.8817 150.767 42.0664 152.356 40.0108 154.884C37.8404 157.626 36.5594 161.118 36.3703 164.811C36.0687 168.573 36.7884 172.371 38.4351 175.708C38.8056 176.608 39.4475 177.337 40.2456 177.763C41.0436 178.19 41.9455 178.285 42.7893 178.033C43.1403 177.925 43.4577 177.714 43.7094 177.421C43.9611 177.129 44.1381 176.765 44.2223 176.367C44.2878 176.069 44.2889 175.755 44.2254 175.453C44.1619 175.151 44.0356 174.869 43.857 174.63C43.7562 174.506 43.5075 174.495 43.5002 174.712Z" fill="#EC258F"/>
<path d="M43.0817 177.709C42.4411 177.745 41.8164 177.928 41.246 178.246C40.6755 178.565 40.1714 179.013 39.7646 179.562C38.9422 180.643 38.3654 181.934 38.0824 183.328C37.751 184.77 37.7364 186.288 38.0396 187.752C38.3429 189.215 38.9551 190.582 39.8243 191.735C41.9044 193.954 44.5961 195.301 47.4341 195.545C50.272 195.788 53.0779 194.912 55.3664 193.067C58.5243 190.584 61.1296 187.324 62.9886 183.528L61.7582 184.231C66.4467 185.536 71.3501 185.232 75.8292 183.358C80.3084 181.485 84.1556 178.129 86.8694 173.728C88.4121 171.239 89.5163 168.435 90.1239 165.465L89.0547 166.54C94.9303 165.952 100.576 163.826 105.54 160.331C107.52 158.813 109.135 156.774 110.248 154.387C111.362 152 111.941 149.336 111.936 146.62L110.496 148.072C115.28 149.044 120.183 148.055 124.308 145.286C128.433 142.517 131.503 138.153 132.957 132.993L131.506 134.109C133.673 134.589 135.905 134.317 137.906 133.331C139.907 132.345 141.581 130.691 142.704 128.59C143.786 126.448 144.234 123.965 143.985 121.493C143.735 119.021 142.801 116.685 141.315 114.816C140.338 113.608 138.56 115.434 139.454 116.715C140.535 118.181 141.211 119.965 141.398 121.844C141.584 123.722 141.271 125.609 140.499 127.268C139.63 128.856 138.344 130.098 136.813 130.827C135.282 131.556 133.58 131.736 131.936 131.343C131.609 131.283 131.277 131.365 131.007 131.572C130.737 131.78 130.55 132.097 130.485 132.459C129.183 136.912 126.492 140.662 122.901 143.028C119.31 145.394 115.059 146.219 110.918 145.353C110.733 145.316 110.543 145.326 110.363 145.383C110.183 145.439 110.018 145.541 109.879 145.68C109.741 145.819 109.632 145.992 109.563 146.187C109.493 146.381 109.463 146.591 109.476 146.801C109.459 149.133 108.932 151.414 107.94 153.443C106.949 155.471 105.523 157.185 103.79 158.434C99.2489 161.468 94.1494 163.328 88.8541 163.882C88.5964 163.913 88.3552 164.033 88.1639 164.226C87.9726 164.419 87.8408 164.676 87.7869 164.96C86.6842 169.641 84.3441 173.814 81.0717 176.934C77.7994 180.054 73.7468 181.976 69.4427 182.45C66.9999 182.724 64.5241 182.476 62.1464 181.717C61.8987 181.667 61.6449 181.709 61.4231 181.836C61.2013 181.963 61.0234 182.168 60.916 182.42C59.7944 185.126 58.1298 187.495 56.0505 189.345C53.9711 191.195 51.5324 192.477 48.9219 193.092C47.8873 193.333 46.8143 193.322 45.7754 193.058C44.7366 192.795 43.7559 192.285 42.8996 191.564C42.0433 190.843 41.3313 189.926 40.8115 188.877C40.2918 187.828 39.9764 186.67 39.8866 185.481C39.8865 184.16 40.211 182.871 40.8244 181.756C41.4378 180.641 42.3164 179.743 43.3636 179.161C43.9806 178.81 43.8975 177.645 43.0817 177.709Z" fill="#EC258F"/>
<path d="M42.8328 51.6753C44.2586 43.7715 47.4641 36.4188 52.1387 30.3298C57.1285 23.9837 63.1592 18.7944 69.8961 15.0497C73.7727 12.8278 77.7743 10.8971 81.875 9.27021C81.9715 9.23712 82.0602 9.18006 82.1348 9.1032C82.2093 9.02633 82.2677 8.9316 82.3058 8.82592C82.3438 8.72024 82.3605 8.60628 82.3547 8.49235C82.3489 8.37843 82.3206 8.26741 82.2721 8.1674C81.2575 5.572 80.2563 2.96948 79.2274 0.381207L78.4505 1.52442C84.1913 2.87017 89.8326 4.71118 95.3252 7.03132C96.0038 7.31891 96.6802 7.61283 97.3542 7.91309C97.9462 8.14016 98.5209 8.42155 99.0724 8.75446C99.1903 8.81789 99.2952 8.90862 99.3802 9.0208C99.4651 9.13297 99.5284 9.26409 99.5658 9.40567C99.6032 9.54725 99.6139 9.69614 99.5973 9.84271C99.5807 9.98928 99.5371 10.1303 99.4693 10.2566C99.158 11.0511 98.8094 11.8263 98.4248 12.5786C97.0134 15.6589 95.6027 18.7399 94.1928 21.8218L89.4394 32.2105L90.7765 32.4078C90.2908 29.1136 89.2535 24.8521 86.1552 23.5972C85.1709 23.3514 84.1528 23.3353 83.1628 23.5498C82.1729 23.7644 81.232 24.2051 80.3976 24.845C78.718 25.7971 77.0832 26.8474 75.5 27.9918C69.1861 32.568 63.7202 38.4926 59.4079 45.4347C57.0106 49.358 54.9811 53.5534 53.3522 57.9529L54.1461 57.5869C49.8612 55.8638 45.8546 53.3581 42.2852 50.1691C42.1409 50.0157 41.9503 49.9302 41.7522 49.9302C41.5542 49.9302 41.3635 50.0157 41.2192 50.1691C41.0788 50.3294 41 50.5459 41 50.7716C41 50.9973 41.0788 51.2139 41.2192 51.3741C44.9505 54.8028 49.2051 57.4288 53.7723 59.1223C53.9521 59.1738 54.1424 59.1447 54.3036 59.0411C54.4648 58.9374 54.5843 58.7673 54.6372 58.5661C55.944 54.8437 57.5998 51.2908 59.5763 47.9683C63.4849 41.272 68.4795 35.475 74.2955 30.8843C75.7498 29.7411 77.2504 28.6795 78.7974 27.6994C79.5466 27.2241 80.3056 26.7693 81.0744 26.3352C81.9836 25.755 82.9615 25.3252 83.9783 25.0589C87.7069 24.3126 88.8983 29.7577 89.3659 32.8475C89.4066 33.0022 89.4861 33.1403 89.5947 33.245C89.7033 33.3498 89.8364 33.4166 89.9779 33.4375C90.1193 33.4583 90.2631 33.4324 90.3918 33.3626C90.5205 33.2929 90.6286 33.1825 90.703 33.0447C93.6987 26.4564 96.6933 19.8673 99.6868 13.2774C100.281 11.9678 101.389 10.2922 100.863 8.74971C100.381 7.34196 98.8366 6.89751 97.7212 6.40553C94.8387 5.13397 91.9148 3.99155 88.9497 2.97827C85.61 1.83506 82.2323 0.849742 78.8167 0.0223193C78.6856 -0.0137486 78.5481 -0.00596513 78.4208 0.0447248C78.2935 0.0954148 78.182 0.186832 78.0998 0.307879C78.0175 0.428927 77.968 0.574401 77.9574 0.726643C77.9468 0.878885 77.9754 1.03135 78.0398 1.16553C79.054 3.75855 80.0961 6.33969 81.1248 8.92558L81.522 7.8204C74.052 10.7054 66.973 14.753 60.4886 19.8467C54.3814 24.6835 49.3468 31.0557 45.7794 38.4637C43.8522 42.5389 42.591 46.9746 42.0566 51.5571C42.0026 52.0563 42.747 52.168 42.8335 51.676L42.8328 51.6753Z" fill="#EC258F"/>
<path d="M46.4206 49.6846C48.0989 42.4385 51.4989 35.8512 56.2514 30.6381C61.4394 25.0106 67.4567 20.4531 74.0315 17.1715C77.886 15.1252 81.8583 13.3569 85.8498 11.6836C86.0079 11.6309 86.1418 11.5108 86.2232 11.3485C86.3045 11.1862 86.327 10.9945 86.2859 10.8138L84.5565 4.67155L83.7376 5.59848C87.8886 6.79161 92.0736 7.88728 96.2826 8.78569L95.8366 7.89679C94.6298 13.4783 92.958 18.9177 90.8436 24.1418L91.9449 23.9802C90.5753 22.2769 89.5003 20.2976 88.776 18.1453C88.7218 17.9353 88.5975 17.7575 88.4293 17.6497C88.2612 17.5419 88.0626 17.5125 87.8756 17.5677C81.7375 20.054 75.9454 23.5219 70.6755 27.8661C65.3963 32.1899 60.666 37.3127 56.6168 43.0915C54.3342 46.3501 52.284 49.8088 50.4855 53.4351L51.5774 53.2759C49.9383 51.8213 48.3005 50.3636 46.664 48.9027C46.5292 48.76 46.3517 48.6807 46.1672 48.6807C45.9827 48.6807 45.8051 48.76 45.6704 48.9027C45.5396 49.0528 45.4662 49.2551 45.4662 49.466C45.4662 49.6768 45.5396 49.8791 45.6704 50.0292C47.312 51.4814 48.9531 52.9344 50.5937 54.3882C50.6699 54.4708 50.7615 54.5331 50.8618 54.5705C50.9621 54.6078 51.0685 54.6193 51.1732 54.604C51.2779 54.5888 51.3783 54.5471 51.467 54.4822C51.5556 54.4173 51.6303 54.3308 51.6855 54.2289C54.7994 47.9413 58.6782 42.18 63.2083 37.114C70.3107 29.1437 78.8606 23.0189 88.2645 19.1649L87.3643 18.5881C88.1899 20.9954 89.4073 23.206 90.9532 25.1051C91.0295 25.19 91.1218 25.2542 91.2233 25.2927C91.3247 25.3313 91.4325 25.3432 91.5386 25.3277C91.6447 25.3121 91.7463 25.2694 91.8357 25.2029C91.9251 25.1363 91.9999 25.0476 92.0545 24.9435C94.1963 19.585 95.8752 14.0046 97.0677 8.28016C97.1108 8.09528 97.0883 7.89864 97.0049 7.73235C96.9215 7.56606 96.7839 7.44337 96.6215 7.39054C92.397 6.55995 88.2143 5.47621 84.0912 4.14392C83.978 4.11072 83.859 4.11157 83.7462 4.14638C83.6333 4.18119 83.5304 4.24876 83.4477 4.34239C83.3649 4.43603 83.3053 4.55249 83.2745 4.68025C83.2438 4.80802 83.243 4.94265 83.2723 5.07085L85.0817 11.1886L85.5178 10.3187C78.2631 13.2398 71.2774 16.9548 64.6599 21.4109C58.7184 25.507 53.6419 31.0268 49.7876 37.5823C47.7356 41.1944 46.2615 45.1873 45.4329 49.378C45.2916 50.1029 46.2669 50.4143 46.4198 49.6846L46.4206 49.6846Z" fill="#EC258F"/>
<path d="M47.0423 45.4706C47.2217 46.6186 47.4107 47.7634 47.6092 48.905C47.7157 50.0058 47.9368 51.0884 48.2679 52.1303C48.3519 52.3347 48.6163 52.2182 48.6226 52.021C48.5617 50.912 48.3855 49.8151 48.0976 48.7529C47.883 47.6168 47.6584 46.4831 47.4238 45.3518C47.365 45.069 46.9988 45.1902 47.0427 45.4706L47.0423 45.4706Z" fill="#EC258F"/>
<path d="M48.5096 43.0304C48.3334 44.915 48.304 46.8134 48.4219 48.7038C48.4753 49.5737 48.5555 50.4397 48.6623 51.3017C48.6761 52.2426 48.877 53.1679 49.2502 54.0088C49.3605 54.1871 49.6637 54.2013 49.705 53.9423C49.7447 53.1248 49.6604 52.3056 49.4558 51.5203C49.3105 50.5506 49.201 49.5745 49.1274 48.5921C48.9929 46.7423 48.9578 44.885 49.0224 43.0304C49.0348 42.6525 48.5441 42.6691 48.5101 43.0304L48.5096 43.0304Z" fill="#EC258F"/>
<path d="M50.0411 38.8132C49.952 41.0906 50.0152 43.3724 50.23 45.639C50.2948 46.7561 50.3678 47.8723 50.4488 48.9878C50.4879 49.5249 50.5211 50.0668 50.5717 50.6015C50.5612 51.1408 50.6618 51.6754 50.8656 52.163C50.8976 52.2198 50.9432 52.265 50.9971 52.2935C51.051 52.3219 51.111 52.3324 51.1699 52.3237C51.2289 52.3149 51.2845 52.2874 51.3301 52.2442C51.3757 52.201 51.4095 52.144 51.4275 52.0798C51.543 51.5179 51.5441 50.9335 51.4307 50.371L51.2961 48.7572C51.2076 47.6402 51.1272 46.5232 51.0548 45.4061C50.9114 43.1958 50.9194 40.9142 50.6017 38.7276C50.5463 38.345 50.0673 38.4757 50.0411 38.8132Z" fill="#EC258F"/>
<path d="M51.6745 35.9741C51.6302 38.175 51.714 40.3759 51.8482 42.572C51.9141 43.651 51.9956 44.7285 52.0926 45.8043C52.0956 46.8434 52.2539 47.8745 52.561 48.8537C52.5923 48.9117 52.6377 48.9582 52.6918 48.9875C52.7459 49.0169 52.8064 49.0278 52.8659 49.019C52.9254 49.0102 52.9813 48.982 53.027 48.9379C53.0726 48.8938 53.1059 48.8357 53.1229 48.7705C53.1886 47.7377 53.1225 46.6995 52.9268 45.6879C52.8199 44.6136 52.7286 43.5346 52.6528 42.4579C52.5012 40.2998 52.4285 38.137 52.3479 35.9741C52.3479 35.8731 52.3124 35.7761 52.2493 35.7046C52.1862 35.6332 52.1005 35.593 52.0112 35.593C51.9219 35.593 51.8363 35.6332 51.7731 35.7046C51.71 35.7761 51.6745 35.8731 51.6745 35.9741Z" fill="#EC258F"/>
<path d="M53.4982 33.624C53.5456 35.7441 53.596 37.8617 53.6762 39.9794L53.7945 43.0976C53.7198 44.0913 53.8407 45.0913 54.1485 46.0258C54.1728 46.0714 54.207 46.1091 54.248 46.1353C54.289 46.1615 54.3352 46.1753 54.3823 46.1753C54.4293 46.1753 54.4756 46.1615 54.5166 46.1353C54.5575 46.1091 54.5918 46.0714 54.6161 46.0258C54.8456 45.0713 54.8831 44.0707 54.7257 43.0976L54.5686 39.9794C54.462 37.8593 54.3257 35.7417 54.1863 33.624C54.1537 33.1297 53.4869 33.1178 53.4982 33.624Z" fill="#EC258F"/>
<path d="M55.6849 30.7896C55.6093 32.7932 55.557 34.7897 55.5467 36.7957C55.4052 38.7514 55.4795 40.7195 55.768 42.6544C55.7854 42.7196 55.8208 42.7768 55.8691 42.8175C55.9174 42.8582 55.9761 42.8801 56.0363 42.8801C56.0965 42.8801 56.1551 42.8582 56.2034 42.8175C56.2517 42.7768 56.2872 42.7196 56.3045 42.6544C56.5931 40.7195 56.6673 38.7514 56.5256 36.7957C56.5155 34.7897 56.4626 32.7932 56.3874 30.7896C56.3843 30.6866 56.3459 30.5889 56.2804 30.5172C56.2148 30.4456 56.1273 30.4055 56.0362 30.4055C55.945 30.4055 55.8575 30.4456 55.7919 30.5172C55.7264 30.5889 55.688 30.6866 55.6849 30.7896Z" fill="#EC258F"/>
<path d="M57.7185 28.4326L57.631 34.0846C57.6167 35.0068 57.6135 35.929 57.61 36.8512C57.5223 37.7217 57.6192 38.6033 57.8928 39.4229C57.9163 39.4675 57.9496 39.5044 57.9895 39.53C58.0294 39.5556 58.0744 39.5691 58.1203 39.5691C58.1662 39.5691 58.2112 39.5556 58.2511 39.53C58.291 39.5044 58.3243 39.4675 58.3478 39.4229C58.6137 38.6418 58.7108 37.7999 58.6309 36.9677C58.6281 36.0051 58.6252 35.0449 58.6099 34.0846L58.5223 28.4326C58.5189 28.3143 58.475 28.2021 58.3999 28.1198C58.3248 28.0375 58.2243 27.9915 58.1198 27.9915C58.0152 27.9915 57.9148 28.0375 57.8396 28.1198C57.7645 28.2021 57.7206 28.3143 57.7173 28.4326L57.7185 28.4326Z" fill="#EC258F"/>
<path d="M59.9584 26.0622C60.1192 28.0586 60.1992 30.0646 60.2364 32.0682C60.2549 33.0711 60.2534 34.0749 60.232 35.0795C60.1328 36.0332 60.1583 36.9982 60.3076 37.9434C60.3263 38.0116 60.3638 38.0712 60.4146 38.1135C60.4654 38.1559 60.5268 38.1787 60.5899 38.1787C60.653 38.1787 60.7144 38.1559 60.7652 38.1135C60.816 38.0712 60.8535 38.0116 60.8722 37.9434C61.1184 37.016 61.2121 36.0452 61.1487 35.0795C61.1627 34.0361 61.1548 32.9935 61.125 31.9517C61.0565 29.9459 60.8926 27.9458 60.6341 25.96C60.5805 25.5298 59.9233 25.6272 59.9584 26.0622Z" fill="#EC258F"/>
<path d="M62.3224 25.1326L62.255 30.3162C62.2438 31.1813 62.2144 32.0464 62.2413 32.9092C62.1634 33.6769 62.2435 34.4545 62.4754 35.1813C62.4993 35.2254 62.5327 35.2618 62.5725 35.2871C62.6124 35.3124 62.6573 35.3257 62.703 35.3257C62.7486 35.3257 62.7935 35.3124 62.8334 35.2871C62.8732 35.2618 62.9066 35.2254 62.9305 35.1813C63.1628 34.4546 63.243 33.6769 63.1646 32.9092C63.1915 32.0464 63.1621 31.1813 63.1509 30.3162L63.0835 25.1326C63.0795 25.0214 63.0377 24.9162 62.9668 24.8391C62.8958 24.762 62.8013 24.719 62.703 24.719C62.6046 24.719 62.5101 24.762 62.4392 24.8391C62.3682 24.9162 62.3264 25.0214 62.3224 25.1326Z" fill="#EC258F"/>
<path d="M64.8911 23.2603C64.7466 24.7886 64.6276 26.3145 64.5255 27.8475L64.3804 30.0271L64.3042 31.1727C64.3045 31.5515 64.3408 31.9292 64.4125 32.2993C64.4606 32.6653 64.9392 32.6106 65.0196 32.2993C65.1245 31.971 65.2005 31.6319 65.2466 31.2868C65.2779 30.9065 65.2886 30.5214 65.3096 30.1411L65.4343 27.8475C65.5183 26.3169 65.5832 24.791 65.6233 23.2603C65.6375 22.716 64.9404 22.7421 64.8913 23.2603L64.8911 23.2603Z" fill="#EC258F"/>
<path d="M67.4039 21.3697L67.0839 25.9569C66.8997 27.4337 66.8606 28.9291 66.9673 30.4157C67.0161 30.7984 67.5213 30.7437 67.6025 30.4157C67.8738 28.9498 68.0006 27.4544 67.9805 25.9569L68.1804 21.3697C68.2052 20.8017 67.4434 20.8112 67.4045 21.3697L67.4039 21.3697Z" fill="#EC258F"/>
<path d="M69.4411 20.4263C69.3286 21.9926 69.2032 23.5588 69.1037 25.1274C69.0554 25.8903 69.0109 26.658 68.9842 27.4209C68.8767 28.118 68.9245 28.8344 69.1232 29.5053C69.1444 29.5445 69.1741 29.5768 69.2096 29.5993C69.245 29.6217 69.2849 29.6335 69.3254 29.6335C69.366 29.6335 69.4059 29.6217 69.4413 29.5993C69.4768 29.5768 69.5065 29.5445 69.5277 29.5053C69.7861 28.8917 69.9098 28.2166 69.8884 27.5374C69.9594 26.7364 70.0081 25.9307 70.0528 25.1274C70.1401 23.5612 70.2017 21.9926 70.2756 20.4263C70.3043 19.8155 69.4844 19.8274 69.4411 20.4263Z" fill="#EC258F"/>
<path d="M71.7981 19.0013C71.6301 20.4535 71.4468 21.9033 71.2994 23.3579L71.0976 25.4209C70.9587 26.1278 70.9533 26.8599 71.0816 27.5694C71.0976 27.6278 71.1281 27.6798 71.1694 27.7192C71.2108 27.7585 71.2613 27.7836 71.3149 27.7914C71.3684 27.7991 71.4229 27.7893 71.4717 27.763C71.5204 27.7367 71.5615 27.6951 71.59 27.6431C71.8445 27.0183 71.9784 26.3394 71.9828 25.6514L72.1955 23.472C72.3398 21.9865 72.44 20.4923 72.5596 19.0013C72.6046 18.4428 71.8602 18.4666 71.7985 19.0013L71.7981 19.0013Z" fill="#EC258F"/>
<path d="M74.0962 17.4891C73.9232 18.8224 73.7449 20.1558 73.5922 21.4915L73.3697 23.4356C73.204 24.057 73.2029 24.7197 73.3667 25.3417C73.3931 25.3915 73.4292 25.4339 73.4721 25.4656C73.5151 25.4974 73.5639 25.5177 73.6148 25.525C73.6657 25.5323 73.7174 25.5265 73.766 25.5079C73.8146 25.4893 73.8589 25.4585 73.8954 25.4178C74.1656 24.9269 74.2995 24.3557 74.2799 23.7778L74.4888 21.7196C74.6272 20.3507 74.7408 18.9769 74.8588 17.6056C74.9008 17.1184 74.1604 16.9995 74.097 17.4891L74.0962 17.4891Z" fill="#EC258F"/>
<path d="M76.4577 16.181C76.4359 17.651 76.3101 19.1166 76.0812 20.5638C75.9701 21.253 75.828 21.9328 75.6841 22.6149C75.5657 23.1782 75.2946 23.8413 75.5357 24.3927C75.5709 24.4581 75.6272 24.5053 75.6927 24.5244C75.7582 24.5435 75.8276 24.5329 75.8863 24.4949C76.3581 24.1955 76.4398 23.442 76.5675 22.8906C76.7356 22.1387 76.8673 21.377 76.9622 20.6089C77.1571 19.1434 77.2526 17.6631 77.248 16.181C77.2447 16.0649 77.2016 15.9548 77.1278 15.874C77.0541 15.7932 76.9555 15.748 76.8529 15.748C76.7502 15.748 76.6516 15.7932 76.5779 15.874C76.5041 15.9548 76.461 16.0649 76.4577 16.181Z" fill="#EC258F"/>
<path d="M78.5194 15.1243C78.2634 16.6026 78.0012 18.0809 77.7635 19.564L77.4158 21.734C77.253 22.4035 77.1925 23.0996 77.2367 23.7922C77.255 23.8619 77.2907 23.924 77.3395 23.9711C77.3883 24.0183 77.4481 24.0485 77.5117 24.058C77.5753 24.0676 77.64 24.0561 77.698 24.0249C77.756 23.9938 77.8047 23.9444 77.8384 23.8826C78.0844 23.2059 78.2256 22.4863 78.2559 21.7554L78.5425 19.5664C78.7315 18.1166 78.895 16.662 79.0674 15.2074C79.1094 14.8581 78.5811 14.7773 78.5215 15.1243L78.5194 15.1243Z" fill="#EC258F"/>
<path d="M79.8043 15.2464C79.6939 16.6178 79.5761 17.9892 79.482 19.363C79.2929 20.6744 79.2861 22.0113 79.4621 23.3251C79.4783 23.3827 79.5103 23.4329 79.5535 23.4686C79.5966 23.5042 79.6487 23.5234 79.7021 23.5234C79.7555 23.5234 79.8075 23.5042 79.8507 23.4686C79.8938 23.4329 79.9258 23.3827 79.9421 23.3251C80.2783 22.0397 80.4372 20.7033 80.4133 19.363C80.4924 17.9916 80.5476 16.6178 80.6102 15.2464C80.6371 14.6546 79.8514 14.6688 79.8052 15.2464L79.8043 15.2464Z" fill="#EC258F"/>
<path d="M82.0522 13.7559C81.8057 15.1439 81.5777 16.5296 81.3885 17.9318L81.1124 19.9782C80.945 20.6109 80.9102 21.279 81.0108 21.9295C81.0307 22.0014 81.0684 22.0654 81.1193 22.1139C81.1702 22.1625 81.2324 22.1936 81.2984 22.2035C81.3644 22.2135 81.4315 22.202 81.4919 22.1703C81.5523 22.1386 81.6035 22.088 81.6394 22.0246C81.8802 21.4654 82.0011 20.8498 81.9924 20.2278L82.2269 18.0602C82.3792 16.6531 82.49 15.2509 82.5839 13.8367C82.5807 13.7646 82.5554 13.696 82.5122 13.6428C82.469 13.5897 82.4108 13.5553 82.3476 13.5457C82.2843 13.5361 82.2201 13.5519 82.1661 13.5903C82.1121 13.6287 82.0716 13.6873 82.0518 13.7559L82.0522 13.7559Z" fill="#EC258F"/>
<path d="M84.0927 11.8628C83.6231 13.1158 83.2615 14.4172 83.0128 15.7488C82.9023 16.3643 82.8309 16.9894 82.7742 17.6145C82.6515 18.264 82.6452 18.9348 82.7555 19.5872C82.7776 19.6671 82.8216 19.737 82.8812 19.7866C82.9408 19.8363 83.0129 19.863 83.0869 19.863C83.1609 19.863 83.2329 19.8363 83.2925 19.7866C83.3522 19.737 83.3962 19.6671 83.4182 19.5872C83.5334 19.0121 83.5816 18.4224 83.5616 17.8331C83.612 17.1391 83.7021 16.4547 83.7989 15.7678C83.98 14.4968 84.2577 13.246 84.6292 12.0292C84.748 11.6371 84.2262 11.4992 84.0927 11.8628Z" fill="#EC258F"/>
<path d="M85.3345 5.34545C85.3007 7.77923 85.2505 10.2201 85.1381 12.6516C85.0831 13.8494 85.0098 15.0449 84.9338 16.2404C84.8946 16.8584 84.8345 17.474 84.802 18.0895C84.7271 18.5953 84.7786 19.1148 84.9504 19.5893C84.966 19.6184 84.9871 19.6432 85.0123 19.6618C85.0375 19.6805 85.066 19.6924 85.0958 19.6968C85.1257 19.7012 85.156 19.698 85.1845 19.6873C85.2131 19.6766 85.2391 19.6588 85.2608 19.6351C85.8384 18.8817 85.7397 17.4129 85.8057 16.4741C85.8922 15.2405 85.9463 14.0046 85.9804 12.7687C86.0484 10.2874 86.0247 7.82273 85.8754 5.34616C85.8734 5.26635 85.844 5.19056 85.7934 5.1349C85.7429 5.07924 85.6751 5.0481 85.6046 5.0481C85.5341 5.0481 85.4663 5.07924 85.4158 5.1349C85.3652 5.19056 85.3358 5.26635 85.3338 5.34616L85.3345 5.34545Z" fill="#EC258F"/>
<path d="M86.6007 7.1411C86.4292 8.08341 86.3425 9.04299 86.342 10.0051L86.1837 13.121L86.0319 16.1229C85.9283 17.118 85.9203 18.1229 86.0082 19.12C86.0684 19.5383 86.6253 19.4884 86.7139 19.12C86.8839 18.1722 86.9623 17.2063 86.9478 16.2393L87.0738 13.121L87.1949 10.1216C87.2831 9.13054 87.2824 8.13196 87.1928 7.1411C87.1429 6.78934 86.674 6.83212 86.6001 7.1411L86.6007 7.1411Z" fill="#EC258F"/>
<path d="M88.2245 6.28236C88.2136 8.52121 88.1873 10.7648 88.0815 13.0013C88.0305 14.0827 87.9479 15.1617 87.8807 16.2407C87.6786 17.3263 87.6573 18.4451 87.8178 19.5396C87.831 19.5889 87.8565 19.6329 87.8913 19.6663C87.926 19.6996 87.9685 19.721 88.0136 19.7278C88.0588 19.7347 88.1047 19.7267 88.146 19.7048C88.1872 19.6829 88.222 19.6481 88.2463 19.6045C88.6195 18.6159 88.7954 17.5463 88.7616 16.472C88.8533 15.3573 88.8941 14.2379 88.9231 13.1185C88.991 10.8388 88.9435 8.55658 88.7807 6.28307C88.7787 6.20108 88.7485 6.1232 88.6966 6.066C88.6446 6.00881 88.575 5.97681 88.5026 5.97681C88.4301 5.97681 88.3605 6.00881 88.3086 6.066C88.2566 6.1232 88.2265 6.20108 88.2245 6.28307L88.2245 6.28236Z" fill="#EC258F"/>
<path d="M90.4398 7.70623C90.2158 10.0188 90.0092 12.3314 89.8343 14.6488L89.5727 18.1213C89.5319 18.6608 89.4801 19.2027 89.4513 19.7422C89.3783 20.3098 89.3878 20.8871 89.4794 21.4511C89.496 21.5128 89.5279 21.5678 89.5713 21.6095C89.6148 21.6512 89.6679 21.6778 89.7244 21.6861C89.7808 21.6945 89.8382 21.6842 89.8897 21.6566C89.9411 21.6289 89.9845 21.5851 90.0144 21.5303C90.1742 21.0302 90.2618 20.5043 90.274 19.9728C90.3267 19.4356 90.3546 18.8937 90.3895 18.3542L90.6215 14.7653C90.7737 12.4123 90.8944 10.0616 90.9961 7.70623C91.0139 7.29505 90.4781 7.31169 90.4398 7.70623Z" fill="#EC258F"/>
<path d="M91.6471 7.21872C91.6425 10.0256 91.4932 12.8421 91.2731 15.6371C91.164 17.0251 91.017 18.4076 90.8322 19.7845C90.7362 20.4975 90.6184 21.2081 90.524 21.9212C90.3993 22.5494 90.3665 23.1965 90.4267 23.8368C90.4757 24.1458 90.8467 24.141 90.9754 23.9176C91.2644 23.3229 91.4501 22.671 91.5226 21.9972C91.6385 21.327 91.7231 20.6472 91.8086 19.9722C91.9861 18.57 92.1277 17.163 92.2334 15.7512C92.4279 12.9113 92.4275 10.0586 92.2323 7.21872C92.2255 7.13615 92.1918 7.05942 92.1376 7.00357C92.0835 6.94771 92.0129 6.91675 91.9396 6.91675C91.8663 6.91675 91.7957 6.94771 91.7416 7.00357C91.6874 7.05942 91.6537 7.13615 91.6469 7.21872L91.6471 7.21872Z" fill="#EC258F"/>
<path d="M93.5241 7.68146C93.3206 9.41408 93.1419 11.1467 92.9781 12.8865C92.7499 14.6081 92.6495 16.3484 92.6781 18.0891C92.6793 18.1484 92.6991 18.2054 92.734 18.2497C92.7689 18.294 92.8166 18.3228 92.8686 18.3309C92.9206 18.339 92.9734 18.3259 93.0176 18.2939C93.0618 18.2619 93.0945 18.2131 93.1098 18.1563C93.4377 16.4601 93.6394 14.7357 93.7126 13.0013C93.8537 11.2282 93.9803 9.45995 94.0803 7.68217C94.1036 7.26863 93.5696 7.29239 93.5241 7.68217L93.5241 7.68146Z" fill="#EC258F"/>
<path d="M94.5067 8.17837C94.1751 10.196 94.0076 12.2438 94.0063 14.2961C94.0087 14.3767 94.0362 14.4538 94.084 14.5137C94.1318 14.5735 94.1968 14.6123 94.2674 14.6231C94.3381 14.634 94.4098 14.6161 94.47 14.5728C94.5301 14.5295 94.5747 14.4634 94.596 14.3864C94.9387 12.3396 95.1144 10.2615 95.1209 8.17837C95.1455 7.72203 94.554 7.7458 94.5061 8.17837L94.5067 8.17837Z" fill="#EC258F"/>
</svg>
