<svg width="439" height="440" viewBox="0 0 439 440" fill="none" xmlns="http://www.w3.org/2000/svg">
<path fill-rule="evenodd" clip-rule="evenodd" d="M44.666 349.951C96.3549 418.94 186.592 453.267 274.951 429.591C390.9 398.522 459.709 279.342 428.641 163.393C397.572 47.4444 278.392 -21.3646 162.443 9.7037C74.0832 33.3796 13.0991 108.225 2.82974 193.816C2.14802 193.896 1.46588 193.985 0.783388 194.083C10.9675 107.495 72.5788 31.7122 161.925 7.77185C278.941 -23.5824 399.218 45.8599 430.573 162.875C461.927 279.891 392.484 400.168 275.469 431.523C186.123 455.463 94.8744 420.639 42.7603 350.743C43.4003 350.487 44.0355 350.223 44.666 349.951Z" fill="#EC258F"/>
</svg>
