<svg width="84" height="84" viewBox="0 0 84 84" fill="none" xmlns="http://www.w3.org/2000/svg">
<rect width="84" height="84" rx="8" fill="#FFF5FB"/>
<path fill-rule="evenodd" clip-rule="evenodd" d="M36.7499 56C41.5824 56 45.4999 52.0825 45.4999 47.25C45.4999 42.4175 41.5824 38.5 36.7499 38.5C31.9174 38.5 27.9999 42.4175 27.9999 47.25C27.9999 52.0825 31.9174 56 36.7499 56ZM36.7499 59.5C43.5154 59.5 48.9999 54.0155 48.9999 47.25C48.9999 40.4845 43.5154 35 36.7499 35C29.9844 35 24.4999 40.4845 24.4999 47.25C24.4999 54.0155 29.9844 59.5 36.7499 59.5Z" fill="#EC258F"/>
<path fill-rule="evenodd" clip-rule="evenodd" d="M47.2497 28C44.6584 28 42.332 29.1242 40.7273 30.9171C40.0828 31.6373 38.9764 31.6986 38.2563 31.054C37.5361 30.4094 37.4748 29.3031 38.1194 28.5829C40.3599 26.0796 43.6215 24.5 47.2497 24.5C54.0152 24.5 59.4997 29.9845 59.4997 36.75C59.4997 40.3782 57.9202 43.6398 55.4168 45.8804C54.6967 46.5249 53.5903 46.4636 52.9457 45.7435C52.3012 45.0233 52.3625 43.917 53.0826 43.2724C54.8755 41.6677 55.9997 39.3413 55.9997 36.75C55.9997 31.9175 52.0822 28 47.2497 28Z" fill="#EC258F"/>
</svg>
