<svg width="84" height="84" viewBox="0 0 84 84" fill="none" xmlns="http://www.w3.org/2000/svg">
<rect width="84" height="84" rx="8" fill="#FFF5FB"/>
<path d="M41.5 34L27.0843 34C25.7261 34 24.6251 35.101 24.6251 36.4592L24.625 57.7908C24.625 59.149 25.726 60.25 27.0842 60.25H41.5M41.5 34L55.9158 34C57.274 34 58.375 35.101 58.375 36.4592V57.7908C58.375 59.149 57.274 60.25 55.9158 60.25H41.5M41.5 34L41.5 60.25" stroke="#EC258F" stroke-width="2"/>
<path d="M43.1475 32.3525C45.3442 34.5492 48.9058 34.5492 51.1025 32.3525C53.2992 30.1558 53.2992 26.5942 51.1025 24.3975C48.9058 22.2008 45.3442 22.2008 43.1475 24.3975C40.9508 26.5942 40.9508 30.1558 43.1475 32.3525ZM43.1475 32.3525L52.75 41.955M39.8525 32.3525C37.6558 34.5492 34.0942 34.5492 31.8975 32.3525C29.7008 30.1558 29.7008 26.5942 31.8975 24.3975C34.0942 22.2008 37.6558 22.2008 39.8525 24.3975C42.0492 26.5942 42.0492 30.1558 39.8525 32.3525ZM39.8525 32.3525L30.25 41.955" stroke="#EC258F" stroke-width="2"/>
</svg>
