<svg width="84" height="84" viewBox="0 0 84 84" fill="none" xmlns="http://www.w3.org/2000/svg">
<rect width="84" height="84" rx="8" fill="#FFF5FB"/>
<g clip-path="url(#clip0)">
<path fill-rule="evenodd" clip-rule="evenodd" d="M33.1633 38.8334C32.0684 38.8334 31.304 39.9181 31.6722 40.9492L37.7682 58.0179C38.4069 59.8062 40.1009 61 41.9999 61C43.8989 61 45.5929 59.8062 46.2316 58.0179L52.3276 40.9492C52.6958 39.9181 51.9314 38.8334 50.8365 38.8334H33.1633ZM35.4101 42L40.7503 56.9528C40.9389 57.4809 41.4391 57.8334 41.9999 57.8334C42.5606 57.8334 43.0608 57.4809 43.2494 56.9528L48.5897 42H35.4101Z" fill="#EC258F"/>
<path fill-rule="evenodd" clip-rule="evenodd" d="M35.5067 33.5516L33.8846 34.2982C33.0611 34.6773 32.5 35.5056 32.5 36.4583C32.5 37.77 33.5633 38.8333 34.875 38.8333H49.125C50.4367 38.8333 51.5 37.77 51.5 36.4583C51.5 35.5056 50.9389 34.6773 50.1154 34.2982L48.4933 33.5516L48.2928 31.7772C47.9363 28.6212 45.2526 26.1667 42 26.1667C38.7474 26.1667 36.0637 28.6212 35.7072 31.7772L35.5067 33.5516ZM51.4395 31.4217C50.904 26.6827 46.8821 23 42 23C37.1179 23 33.0959 26.6827 32.5605 31.4217C30.6557 32.2984 29.3333 34.2239 29.3333 36.4583C29.3333 39.5189 31.8144 42 34.875 42H49.125C52.1856 42 54.6667 39.5189 54.6667 36.4583C54.6667 34.2239 53.3443 32.2984 51.4395 31.4217Z" fill="#EC258F"/>
</g>
<defs>
<clipPath id="clip0">
<rect width="38" height="38" fill="white" transform="translate(23 23)"/>
</clipPath>
</defs>
</svg>
