<svg width="65" height="64" viewBox="0 0 65 64" fill="none" xmlns="http://www.w3.org/2000/svg">
<g clip-path="url(#clip0)">
<path d="M34.6603 52.1643C36.8808 52.1643 38.6809 50.3642 38.6809 48.1437L40.9459 35.1479L28.3747 35.1479L30.6397 43.8602L30.6397 48.1436C30.6397 50.3643 32.4398 52.1643 34.6603 52.1643Z" fill="#C7C7C7"/>
<path d="M42.7014 63.8333C44.9218 63.8333 46.722 62.0332 46.722 59.8126L46.722 35.148L38.6809 35.148L38.6809 59.8126C38.6809 62.0332 40.4809 63.8333 42.7014 63.8333V63.8333Z" fill="#C7C7C7"/>
<path d="M31.6159 0.313472L20.6597 0.313471L20.6597 8.92849L14.5575 16.8032L14.5575 35.6234L30.6397 36.5984L43.682 30.2558L31.6159 0.313472Z" fill="#D6D6D6"/>
<path d="M34.6601 28.5572C32.4397 28.5572 30.6395 30.3572 30.6395 32.5778L30.6395 36.5984L42.0049 36.5984C46.6403 36.5984 50.3982 32.8405 50.3982 28.2051L50.3982 16.8032L44.2958 8.92849L44.2958 0.313472L31.6156 0.313471L31.6156 13.8234L31.6156 15.7236C31.6156 20.8884 34.5708 25.5976 39.2213 27.844L40.6976 28.5572L34.6601 28.5572Z" fill="#E7E7E7"/>
<path d="M18.578 43.719C20.7985 43.719 22.5986 41.9188 22.5986 39.6984L24.0099 37.6608L22.5986 35.6232C22.5986 33.4027 20.7986 31.6026 18.578 31.6026C16.3575 31.6025 14.5574 33.4027 14.5574 35.6232L14.5574 39.6983C14.5575 41.9188 16.3575 43.719 18.578 43.719Z" fill="#C7C7C7"/>
<path d="M26.6189 47.8809C28.8393 47.8809 30.6395 46.0808 30.6395 43.8602L30.6395 35.623C30.6395 33.4025 28.8394 31.6024 26.6189 31.6024C24.3984 31.6024 22.5982 33.4025 22.5982 35.623L22.5982 43.8602C22.5982 46.0808 24.3983 47.8809 26.6189 47.8809Z" fill="#C7C7C7"/>
</g>
<defs>
<clipPath id="clip0">
<rect width="63.52" height="63.52" fill="white" transform="translate(64.2375 63.8333) rotate(-180)"/>
</clipPath>
</defs>
</svg>
