<svg width="238" height="242" viewBox="0 0 238 242" fill="none" xmlns="http://www.w3.org/2000/svg">
<path d="M191.531 127.57C191.657 126.641 191.437 125.82 190.87 125.107C190.313 124.394 189.548 123.972 188.575 123.84C187.603 123.708 186.749 123.911 186.013 124.448C185.285 124.985 184.859 125.719 184.733 126.648C184.593 127.681 184.891 128.548 185.627 129.249L185.446 130.578C184.774 130.124 184.274 129.543 183.945 128.835C183.624 128.138 183.522 127.359 183.639 126.499C183.81 125.241 184.383 124.244 185.357 123.51C186.332 122.776 187.458 122.495 188.734 122.668C190.01 122.841 191.021 123.412 191.765 124.379C192.509 125.346 192.795 126.46 192.625 127.718C192.508 128.578 192.198 129.301 191.694 129.887C191.198 130.482 190.565 130.909 189.796 131.168L189.976 129.839C190.872 129.36 191.391 128.603 191.531 127.57Z" fill="#B90062"/>
<path d="M47.3033 114.269C47.1772 115.198 47.3974 116.019 47.9637 116.733C48.5214 117.445 49.2864 117.867 50.2588 117.999C51.2311 118.131 52.0853 117.929 52.8212 117.392C53.5485 116.854 53.9751 116.12 54.1012 115.191C54.2413 114.158 53.9434 113.291 53.2074 112.59L53.3876 111.262C54.0599 111.716 54.5602 112.296 54.8886 113.004C55.2095 113.702 55.3117 114.48 55.1951 115.34C55.0243 116.599 54.4514 117.595 53.4765 118.33C52.5016 119.064 51.376 119.344 50.0998 119.171C48.8235 118.998 47.8134 118.428 47.0693 117.46C46.3252 116.493 46.0386 115.38 46.2094 114.121C46.326 113.261 46.6362 112.539 47.1401 111.953C47.6365 111.357 48.2691 110.93 49.038 110.672L48.8578 112C47.9616 112.48 47.4434 113.236 47.3033 114.269Z" fill="#B90062"/>
<path d="M187.329 142.422L186.893 143.464L184.456 142.445L185.771 146.144L185.188 147.538L183.693 143.279L179.611 145.204L180.195 143.809L183.607 142.089L181.316 141.13L181.752 140.088L187.329 142.422Z" fill="#B90062"/>
<path d="M51.505 99.4172L51.9414 98.3747L54.3781 99.3946L53.0628 95.6955L53.6464 94.3014L55.1407 98.5598L59.2229 96.6355L58.6394 98.0297L55.2267 99.7498L57.518 100.709L57.0816 101.751L51.505 99.4172Z" fill="#B90062"/>
<path d="M172.458 154.453L173.139 153.552L180.101 158.813L179.42 159.715L178.895 159.318C179.035 160.05 178.845 160.758 178.328 161.443C177.752 162.205 177.052 162.615 176.228 162.673C175.405 162.731 174.64 162.494 173.934 161.96C173.228 161.427 172.79 160.756 172.622 159.947C172.453 159.139 172.656 158.354 173.232 157.592C173.75 156.907 174.379 156.532 175.121 156.466L172.458 154.453ZM177.933 159.283C177.878 158.747 177.577 158.273 177.032 157.861C176.487 157.449 175.945 157.286 175.407 157.374C174.87 157.474 174.433 157.747 174.095 158.194C173.751 158.649 173.633 159.147 173.74 159.689C173.848 160.243 174.14 160.699 174.615 161.059C175.09 161.418 175.606 161.571 176.162 161.519C176.719 161.479 177.169 161.232 177.513 160.777C177.851 160.33 177.991 159.832 177.933 159.283Z" fill="#B90062"/>
<path d="M66.3764 87.3857L65.695 88.2874L58.733 83.0262L59.4145 82.1245L59.9387 82.5207C59.7994 81.7895 59.9886 81.0814 60.5063 80.3963C61.0821 79.6344 61.7819 79.2243 62.6056 79.166C63.4294 79.1077 64.1943 79.3453 64.9003 79.8788C65.6063 80.4123 66.0437 81.0833 66.2124 81.8917C66.3812 82.7001 66.1777 83.4853 65.6019 84.2472C65.0843 84.9322 64.4547 85.3075 63.7133 85.3731L66.3764 87.3857ZM60.9006 82.5557C60.9565 83.0921 61.257 83.5663 61.8022 83.9784C62.3474 84.3904 62.8892 84.5527 63.4274 84.4653C63.964 84.3656 64.4013 84.0921 64.7394 83.6447C65.0827 83.1904 65.2011 82.6923 65.0944 82.1505C64.986 81.5963 64.6942 81.1397 64.2189 80.7805C63.7436 80.4213 63.2281 80.2678 62.6724 80.3201C62.115 80.3602 61.6647 80.6073 61.3213 81.0617C60.9833 81.509 60.843 82.0071 60.9006 82.5557Z" fill="#B90062"/>
<path d="M166.911 174.791C166.207 175.356 165.428 175.588 164.572 175.488C163.722 175.395 163.012 174.993 162.442 174.283C161.872 173.572 161.63 172.788 161.718 171.932C161.811 171.082 162.209 170.374 162.913 169.81C163.624 169.239 164.404 169.001 165.254 169.094C166.103 169.199 166.812 169.607 167.382 170.318C167.953 171.028 168.195 171.806 168.108 172.65C168.021 173.507 167.622 174.22 166.911 174.791ZM165.096 170.198C164.537 170.118 164.029 170.262 163.571 170.629C163.114 170.997 162.863 171.462 162.82 172.024C162.777 172.587 162.945 173.104 163.324 173.575C163.707 174.053 164.176 174.329 164.729 174.402C165.28 174.487 165.788 174.344 166.253 173.971C166.718 173.598 166.971 173.13 167.014 172.568C167.056 172.018 166.885 171.503 166.501 171.025C166.122 170.554 165.654 170.278 165.096 170.198Z" fill="#B90062"/>
<path d="M71.9236 67.0484C72.6274 66.4836 73.407 66.2511 74.2623 66.351C75.1122 66.4441 75.8223 66.8459 76.3926 67.5566C76.9629 68.2672 77.2043 69.0508 77.1167 69.9075C77.0236 70.7574 76.6252 71.4648 75.9214 72.0296C75.2107 72.5999 74.4305 72.8385 73.5806 72.7455C72.7321 72.6401 72.0227 72.232 71.4524 71.5214C70.8821 70.8108 70.64 70.0333 70.7263 69.1889C70.8139 68.3322 71.213 67.6187 71.9236 67.0484ZM73.739 71.641C74.2974 71.7208 74.8055 71.5771 75.2633 71.2096C75.7211 70.8422 75.9715 70.3773 76.0144 69.8149C76.0573 69.2524 75.8895 68.7355 75.5111 68.264C75.1273 67.7857 74.6589 67.51 74.106 67.437C73.5544 67.3517 73.0463 67.4954 72.5817 67.8684C72.117 68.2413 71.8633 68.7089 71.8204 69.2714C71.7788 69.8215 71.95 70.3357 72.3338 70.814C72.7122 71.2855 73.1806 71.5611 73.739 71.641Z" fill="#B90062"/>
<path d="M154.885 183.684L150.496 185.716L147.956 180.23L148.981 179.755L151.102 184.335L153.44 183.252L152.782 181.833C152.628 181.499 152.501 181.206 152.403 180.952C152.308 180.706 152.227 180.405 152.16 180.051C152.088 179.707 152.075 179.409 152.122 179.156C152.161 178.906 152.27 178.653 152.45 178.395C152.634 178.146 152.901 177.94 153.251 177.778L153.597 177.618L154.044 178.584L153.829 178.684C153.591 178.794 153.425 178.948 153.333 179.145C153.241 179.342 153.226 179.581 153.288 179.861C153.343 180.145 153.406 180.386 153.478 180.584C153.551 180.782 153.661 181.04 153.808 181.358L154.885 183.684Z" fill="#B90062"/>
<path d="M83.9499 58.1553L88.3384 56.123L90.8788 61.6087L89.8532 62.0836L87.7326 57.5043L85.3952 58.5867L86.0524 60.0058C86.207 60.3397 86.3334 60.6336 86.4317 60.8874C86.5262 61.1333 86.6074 61.4336 86.6752 61.7885C86.7472 62.1317 86.7598 62.43 86.713 62.6834C86.6742 62.9331 86.5647 63.1865 86.3845 63.4438C86.2006 63.6931 85.9338 63.8987 85.584 64.0607L85.2381 64.2209L84.7908 63.2549L85.0054 63.1555C85.244 63.0451 85.4093 62.8912 85.5014 62.6941C85.5936 62.4969 85.6086 62.2583 85.5464 61.9781C85.4922 61.6942 85.4289 61.4532 85.3564 61.255C85.2839 61.0569 85.1741 60.7988 85.0268 60.4808L83.9499 58.1553Z" fill="#B90062"/>
<path d="M137.51 188.819L135.444 189.213C134.713 189.352 134.121 189.269 133.67 188.962C133.221 188.665 132.942 188.227 132.832 187.651C132.722 187.074 132.82 186.56 133.126 186.109C133.434 185.667 133.954 185.376 134.686 185.237L137.861 184.631L138.994 190.569L137.884 190.781L137.51 188.819ZM136.938 185.824L134.912 186.21C134.542 186.281 134.274 186.421 134.109 186.631C133.935 186.843 133.879 187.112 133.942 187.439C134.004 187.766 134.155 187.996 134.394 188.129C134.625 188.263 134.926 188.295 135.296 188.224L137.323 187.838L136.938 185.824Z" fill="#B90062"/>
<path d="M101.324 53.0203L103.39 52.6263C104.121 52.4868 104.713 52.5702 105.163 52.8767C105.613 53.1745 105.892 53.6117 106.002 54.1884C106.112 54.765 106.014 55.2787 105.708 55.7296C105.4 56.1719 104.88 56.4628 104.148 56.6024L100.973 57.2081L99.8399 51.2698L100.95 51.058L101.324 53.0203ZM101.896 56.0152L103.922 55.6286C104.292 55.5581 104.56 55.4178 104.725 55.2079C104.899 54.9964 104.955 54.7271 104.892 54.4001C104.83 54.0731 104.679 53.8432 104.44 53.7105C104.209 53.5761 103.908 53.5442 103.538 53.6148L101.511 54.0014L101.896 56.0152Z" fill="#B90062"/>
<path d="M123.373 192.416L123.327 193.414L117.525 193.145L117.571 192.148L119.908 192.256L120.141 187.215L121.27 187.267L121.037 192.308L123.373 192.416Z" fill="#B90062"/>
<path d="M115.461 49.4224L115.507 48.4247L121.309 48.6936L121.263 49.6913L118.926 49.583L118.693 54.6242L117.564 54.5718L117.797 49.5307L115.461 49.4224Z" fill="#B90062"/>
<path d="M104.208 186.455C103.484 186.247 102.895 186.36 102.442 186.795L101.267 186.457C101.629 185.96 102.1 185.621 102.681 185.441C103.253 185.259 103.859 185.26 104.498 185.444C105.374 185.696 106.019 186.196 106.433 186.944C106.839 187.689 106.913 188.508 106.657 189.401C106.405 190.276 105.918 190.925 105.195 191.346C104.464 191.765 103.665 191.85 102.798 191.601C101.981 191.366 101.387 190.881 101.015 190.145C100.632 189.415 100.561 188.629 100.803 187.787C100.874 187.543 100.928 187.385 100.967 187.314L105.653 188.661C105.723 188.162 105.626 187.705 105.362 187.292C105.09 186.877 104.705 186.597 104.208 186.455ZM103.088 190.59C103.585 190.733 104.042 190.714 104.458 190.533C104.864 190.358 105.167 190.048 105.368 189.605L101.806 188.581C101.74 189.064 101.82 189.483 102.046 189.84C102.269 190.205 102.617 190.455 103.088 190.59Z" fill="#B90062"/>
<path d="M134.626 55.3845C135.35 55.5926 135.939 55.4792 136.392 55.0442L137.567 55.3817C137.205 55.8794 136.734 56.2181 136.153 56.3977C135.581 56.5798 134.975 56.5789 134.335 56.395C133.46 56.1434 132.815 55.6436 132.401 54.8956C131.995 54.15 131.921 53.331 132.177 52.4384C132.429 51.5626 132.916 50.9141 133.639 50.4927C134.37 50.0738 135.169 49.989 136.036 50.2382C136.853 50.4729 137.447 50.9582 137.819 51.6941C138.202 52.4239 138.273 53.2099 138.031 54.052C137.96 54.2962 137.906 54.4537 137.867 54.5247L133.181 53.1782C133.111 53.6775 133.208 54.1338 133.472 54.547C133.744 54.9626 134.129 55.2418 134.626 55.3845ZM135.746 51.2487C135.249 51.1059 134.792 51.1251 134.376 51.3062C133.97 51.4813 133.667 51.7907 133.466 52.2345L137.028 53.258C137.094 52.7755 137.014 52.356 136.788 51.9994C136.565 51.6344 136.217 51.3842 135.746 51.2487Z" fill="#B90062"/>
<path d="M82.2121 179.478C81.9124 178.923 81.943 178.382 82.3039 177.854C82.5709 177.463 82.9284 177.235 83.3763 177.17C83.817 177.1 84.2977 177.243 84.8185 177.599L87.8454 179.668L84.4337 184.658L81.4502 182.619C80.9294 182.263 80.6217 181.867 80.5272 181.431C80.4205 180.997 80.5031 180.581 80.775 180.183C81.131 179.663 81.61 179.427 82.2121 179.478ZM86.3487 179.854L84.3524 178.49C83.8461 178.144 83.4496 178.18 83.1628 178.6C82.876 179.019 82.9858 179.402 83.4921 179.748L85.4884 181.113L86.3487 179.854ZM84.9247 181.938L82.9718 180.603C82.4655 180.256 82.069 180.293 81.7822 180.713C81.4954 181.132 81.6052 181.515 82.1115 181.861L84.0643 183.196L84.9247 181.938Z" fill="#B90062"/>
<path d="M156.622 62.3609C156.922 62.916 156.891 63.4576 156.53 63.9855C156.263 64.3761 155.906 64.604 155.458 64.6693C155.017 64.7395 154.536 64.5966 154.016 64.2406L150.989 62.1713L154.4 57.1807L157.384 59.2203C157.905 59.5763 158.212 59.9723 158.307 60.4084C158.414 60.8422 158.331 61.258 158.059 61.6558C157.703 62.1766 157.224 62.4116 156.622 62.3609ZM152.485 61.9846L154.482 63.3493C154.988 63.6954 155.384 63.6587 155.671 63.2392C155.958 62.8197 155.848 62.4369 155.342 62.0908L153.346 60.7261L152.485 61.9846ZM153.909 59.9016L155.862 61.2366C156.368 61.5827 156.765 61.546 157.052 61.1265C157.339 60.707 157.229 60.3242 156.722 59.9781L154.77 58.6431L153.909 59.9016Z" fill="#B90062"/>
<path d="M67.836 171.726L67.0908 170.876L71.6358 166.89L72.381 167.74L70.4642 169.421L72.7952 172.079L74.712 170.398L75.4572 171.248L70.9122 175.234L70.167 174.384L72.0443 172.738L69.7133 170.08L67.836 171.726Z" fill="#B90062"/>
<path d="M170.998 70.1129L171.743 70.9626L167.198 74.9487L166.453 74.099L168.37 72.4179L166.039 69.7601L164.122 71.4412L163.377 70.5915L167.922 66.6053L168.667 67.4551L166.79 69.1015L169.121 71.7593L170.998 70.1129Z" fill="#B90062"/>
<path d="M63.3435 156.789L63.8337 157.808L58.3864 160.429L57.8962 159.411L61.8633 157.502L56.3631 156.225L55.873 155.207L61.3203 152.585L61.8104 153.604L57.8434 155.513L63.3435 156.789Z" fill="#B90062"/>
<path d="M175.49 85.05L175 84.0316L180.448 81.4099L180.938 82.4283L176.971 84.3376L182.471 85.6138L182.961 86.6322L177.514 89.2539L177.024 88.2355L180.991 86.3262L175.49 85.05Z" fill="#B90062"/>
<path d="M51.1975 137.388C51.7376 137.274 52.2033 137.445 52.5946 137.9C52.7895 137.294 53.157 136.935 53.6971 136.821C54.2201 136.711 54.7149 136.871 55.1815 137.301C55.6395 137.733 55.9516 138.343 56.1177 139.132C56.2856 139.929 56.2471 140.618 56.0021 141.198C55.7485 141.779 55.361 142.192 54.8393 142.436L54.5739 141.176C55.096 140.806 55.2604 140.163 55.0672 139.246C54.9787 138.826 54.8276 138.49 54.6137 138.24C54.3894 137.983 54.1401 137.883 53.8657 137.941C53.6342 137.99 53.4765 138.112 53.3926 138.309C53.2983 138.499 53.281 138.735 53.3406 139.018L53.6412 140.446L52.6638 140.652L52.3686 139.25C52.309 138.967 52.2021 138.757 52.0477 138.619C51.8848 138.483 51.6876 138.44 51.4562 138.489C51.1818 138.546 50.993 138.734 50.8897 139.051C50.7864 139.368 50.7799 139.741 50.8701 140.17C51.0543 141.044 51.4435 141.553 52.0378 141.697L52.2951 142.918C51.7225 142.878 51.2184 142.653 50.783 142.243C50.3389 141.835 50.0302 141.22 49.8569 140.397C49.7161 139.728 49.7483 139.094 49.9536 138.496C50.157 137.889 50.5717 137.52 51.1975 137.388Z" fill="#B90062"/>
<path d="M187.636 104.451C187.096 104.565 186.631 104.394 186.239 103.94C186.045 104.545 185.677 104.904 185.137 105.018C184.614 105.128 184.119 104.968 183.653 104.538C183.194 104.106 182.882 103.496 182.716 102.707C182.548 101.91 182.587 101.221 182.832 100.641C183.085 100.06 183.473 99.6469 183.995 99.4027L184.26 100.663C183.738 101.033 183.574 101.676 183.767 102.593C183.855 103.014 184.006 103.349 184.22 103.599C184.445 103.856 184.694 103.956 184.968 103.898C185.2 103.85 185.357 103.727 185.441 103.53C185.536 103.34 185.553 103.104 185.493 102.821L185.193 101.393L186.17 101.187L186.465 102.589C186.525 102.872 186.632 103.082 186.786 103.22C186.949 103.356 187.146 103.399 187.378 103.351C187.652 103.293 187.841 103.105 187.944 102.788C188.048 102.471 188.054 102.098 187.964 101.669C187.78 100.795 187.39 100.286 186.796 100.142L186.539 98.9206C187.112 98.9612 187.616 99.1863 188.051 99.596C188.495 100.004 188.804 100.619 188.977 101.442C189.118 102.111 189.086 102.745 188.88 103.343C188.677 103.95 188.262 104.319 187.636 104.451Z" fill="#B90062"/>
</svg>
