<svg width="24" height="24" viewBox="0 0 24 24" fill="none" xmlns="http://www.w3.org/2000/svg">
<path d="M5 4H9L11 9L8.5 10.5C9.57096 12.6715 11.3285 14.429 13.5 15.5L15 13L20 15V19C20 19.5304 19.7893 20.0391 19.4142 20.4142C19.0391 20.7893 18.5304 21 18 21C14.0993 20.763 10.4202 19.1065 7.65683 16.3432C4.8935 13.5798 3.23705 9.90074 3 6C3 5.46957 3.21071 4.96086 3.58579 4.58579C3.96086 4.21071 4.46957 4 5 4" stroke="white" stroke-width="2" stroke-linecap="round" stroke-linejoin="round"/>
<path d="M17.0652 5.40429C17.0821 5.38083 17.101 5.3589 17.1217 5.33873L20.6012 1.85928L20.49 1.89986C20.3808 1.93892 20.2655 1.95861 20.1495 1.95808L18.1981 1.95808C17.9469 1.96392 17.7279 1.78817 17.6793 1.54168C17.6372 1.2693 17.8239 1.01435 18.0963 0.972236C18.1183 0.968839 18.1405 0.966909 18.1628 0.966479L21.6916 0.966479C21.9672 0.966324 22.1908 1.18963 22.1909 1.46526C22.1909 1.46544 22.1909 1.46563 22.1909 1.46581L22.1909 4.99466C22.1906 5.27027 21.9668 5.49339 21.6912 5.49302C21.6695 5.49299 21.6478 5.49154 21.6263 5.4887C21.3798 5.44006 21.2041 5.22113 21.2099 4.96996L21.2064 3.0185C21.2063 2.9149 21.2224 2.81191 21.254 2.71326L21.3123 2.55975L17.8469 6.02508C17.6734 6.21204 17.3893 6.24428 17.1782 6.10095C16.9546 5.93977 16.9041 5.62788 17.0652 5.40429Z" fill="white"/>
</svg>
