<svg width="16" height="16" viewBox="0 0 16 16" fill="none" xmlns="http://www.w3.org/2000/svg">
<path fill-rule="evenodd" clip-rule="evenodd" d="M13.306 2.67206C11.9026 1.26709 10.0363 0.493011 8.04807 0.492188C3.95108 0.492188 0.61673 3.82645 0.615082 7.92453C0.614533 9.23456 0.956757 10.5134 1.60724 11.6406L0.552734 15.4922L4.49308 14.4586C5.5788 15.0508 6.80112 15.3629 8.04505 15.3633H8.04816C12.1447 15.3633 15.4794 12.0287 15.481 7.93048C15.4818 5.94433 14.7094 4.07693 13.306 2.67206ZM8.04807 14.108H8.04551C6.93699 14.1075 5.8498 13.8096 4.90113 13.2469L4.67563 13.1129L2.33737 13.7263L2.96149 11.4466L2.81455 11.2128C2.19611 10.2292 1.86954 9.09228 1.87009 7.92499C1.87137 4.51877 4.64286 1.74756 8.05054 1.74756C9.70069 1.74811 11.2519 2.39154 12.4183 3.5593C13.5846 4.72705 14.2266 6.27923 14.2261 7.93002C14.2246 11.3365 11.4533 14.108 8.04807 14.108ZM11.4368 9.48102C11.2511 9.388 10.338 8.93884 10.1677 8.87677C9.9976 8.81479 9.87364 8.78393 9.74995 8.96979C9.62608 9.15564 9.27021 9.57403 9.16181 9.6979C9.05341 9.82187 8.9452 9.83743 8.75944 9.74441C8.57368 9.65149 7.97529 9.45529 7.26585 8.82257C6.71378 8.33011 6.34107 7.72192 6.23267 7.53607C6.12446 7.35004 6.23176 7.25922 6.31415 7.15704C6.5152 6.90738 6.71653 6.64563 6.77842 6.52176C6.8404 6.3978 6.80936 6.28931 6.76285 6.19638C6.71653 6.10345 6.3451 5.1893 6.19037 4.81732C6.0395 4.45532 5.88651 4.50421 5.77244 4.49853C5.66422 4.49313 5.54035 4.49203 5.41648 4.49203C5.2927 4.49203 5.09147 4.53845 4.92118 4.72449C4.75098 4.91043 4.27124 5.35968 4.27124 6.27383C4.27124 7.18799 4.93674 8.0711 5.02958 8.19507C5.12241 8.31903 6.33924 10.1949 8.20225 10.9993C8.64536 11.1909 8.99125 11.305 9.26106 11.3906C9.706 11.532 10.1108 11.512 10.4308 11.4642C10.7877 11.4109 11.5296 11.0149 11.6845 10.5811C11.8392 10.1472 11.8392 9.77545 11.7927 9.6979C11.7463 9.62045 11.6225 9.57403 11.4368 9.48102Z" fill="#EC258F"/>
</svg>
