<svg width="24" height="24" viewBox="0 0 24 24" fill="none" xmlns="http://www.w3.org/2000/svg">
<path d="M10.4243 10.4243C10.3111 10.5375 10.1768 10.6273 10.0289 10.6885C9.88104 10.7498 9.72255 10.7813 9.5625 10.7813C9.40245 10.7813 9.24396 10.7498 9.09609 10.6885C8.94822 10.6273 8.81386 10.5375 8.70069 10.4243L3.46875 5.19232V3.46875H5.19232L10.4243 8.70069C10.5375 8.81386 10.6273 8.94822 10.6885 9.09609C10.7498 9.24396 10.7813 9.40245 10.7813 9.5625C10.7813 9.72255 10.7498 9.88104 10.6885 10.0289C10.6273 10.1768 10.5375 10.3111 10.4243 10.4243ZM20.5312 20.5312V18.8077L15.2993 13.5757C15.0707 13.3471 14.7607 13.2187 14.4375 13.2187C14.1143 13.2187 13.8043 13.3471 13.5757 13.5757C13.3471 13.8043 13.2187 14.1143 13.2187 14.4375C13.2187 14.7607 13.3471 15.0707 13.5757 15.2993L18.8077 20.5312H20.5312ZM2.65625 7.9375V2.65625H7.9375C8.26073 2.65625 8.57073 2.52785 8.79929 2.29929C9.02785 2.07073 9.15625 1.76073 9.15625 1.4375C9.15625 1.11427 9.02785 0.804274 8.79929 0.575714C8.57073 0.347154 8.26073 0.21875 7.9375 0.21875H1.4375C1.11427 0.21875 0.804274 0.347154 0.575714 0.575714C0.347154 0.804274 0.21875 1.11427 0.21875 1.4375V7.9375C0.21875 8.26073 0.347154 8.57073 0.575714 8.79929C0.804274 9.02785 1.11427 9.15625 1.4375 9.15625C1.76073 9.15625 2.07073 9.02785 2.29929 8.79929C2.52785 8.57073 2.65625 8.26073 2.65625 7.9375ZM23.7812 22.5625V16.0625C23.7812 15.7393 23.6528 15.4293 23.4243 15.2007C23.1957 14.9722 22.8857 14.8438 22.5625 14.8438C22.2393 14.8438 21.9293 14.9722 21.7007 15.2007C21.4722 15.4293 21.3438 15.7393 21.3438 16.0625V21.3438H16.0625C15.7393 21.3438 15.4293 21.4722 15.2007 21.7007C14.9722 21.9293 14.8438 22.2393 14.8438 22.5625C14.8438 22.8857 14.9722 23.1957 15.2007 23.4243C15.4293 23.6528 15.7393 23.7812 16.0625 23.7812H22.5625C22.8857 23.7812 23.1957 23.6528 23.4243 23.4243C23.6528 23.1957 23.7812 22.8857 23.7812 22.5625Z" fill="#EC258F"/>
</svg>
